<mxfile host="app.diagrams.net" modified="2021-08-30T08:48:46.931Z" agent="5.0 (X11)" etag="qWz6c96fRRVuvDkvXi86" version="14.9.6" type="github">
  <diagram id="e655tog_qIfLLv0GMpIh" name="Page-1">
    <mxGraphModel dx="1956" dy="632" grid="1" gridSize="10" guides="1" tooltips="1" connect="1" arrows="1" fold="1" page="1" pageScale="1" pageWidth="827" pageHeight="1169" math="0" shadow="0">
      <root>
        <mxCell id="0" />
        <mxCell id="1" parent="0" />
        <mxCell id="Dc8rIp4SgCtgs9jUnkT4-1" value="SIPP算法" style="rounded=0;whiteSpace=wrap;html=1;" vertex="1" parent="1">
          <mxGeometry x="-810" y="120" width="120" height="60" as="geometry" />
        </mxCell>
        <mxCell id="Dc8rIp4SgCtgs9jUnkT4-16" style="edgeStyle=orthogonalEdgeStyle;rounded=0;orthogonalLoop=1;jettySize=auto;html=1;exitX=0.5;exitY=1;exitDx=0;exitDy=0;entryX=-0.002;entryY=0.634;entryDx=0;entryDy=0;entryPerimeter=0;" edge="1" parent="1" source="Dc8rIp4SgCtgs9jUnkT4-3" target="Dc8rIp4SgCtgs9jUnkT4-10">
          <mxGeometry relative="1" as="geometry" />
        </mxCell>
        <mxCell id="Dc8rIp4SgCtgs9jUnkT4-3" value="agent" style="rounded=0;whiteSpace=wrap;html=1;" vertex="1" parent="1">
          <mxGeometry x="-690" y="220" width="80" height="40" as="geometry" />
        </mxCell>
        <mxCell id="Dc8rIp4SgCtgs9jUnkT4-6" value="输入信息" style="ellipse;whiteSpace=wrap;html=1;" vertex="1" parent="1">
          <mxGeometry x="-800" y="210" width="60" height="50" as="geometry" />
        </mxCell>
        <mxCell id="Dc8rIp4SgCtgs9jUnkT4-19" style="edgeStyle=orthogonalEdgeStyle;rounded=0;orthogonalLoop=1;jettySize=auto;html=1;exitX=1;exitY=0.5;exitDx=0;exitDy=0;entryX=0.5;entryY=0;entryDx=0;entryDy=0;" edge="1" parent="1" source="Dc8rIp4SgCtgs9jUnkT4-7" target="Dc8rIp4SgCtgs9jUnkT4-10">
          <mxGeometry relative="1" as="geometry">
            <Array as="points">
              <mxPoint x="-510" y="240" />
              <mxPoint x="-510" y="280" />
              <mxPoint x="-446" y="280" />
            </Array>
          </mxGeometry>
        </mxCell>
        <mxCell id="Dc8rIp4SgCtgs9jUnkT4-7" value="map" style="rounded=0;whiteSpace=wrap;html=1;" vertex="1" parent="1">
          <mxGeometry x="-550" y="220" width="80" height="40" as="geometry" />
        </mxCell>
        <mxCell id="Dc8rIp4SgCtgs9jUnkT4-20" style="edgeStyle=orthogonalEdgeStyle;rounded=0;orthogonalLoop=1;jettySize=auto;html=1;entryX=0.5;entryY=0;entryDx=0;entryDy=0;" edge="1" parent="1" source="Dc8rIp4SgCtgs9jUnkT4-8" target="Dc8rIp4SgCtgs9jUnkT4-10">
          <mxGeometry relative="1" as="geometry">
            <Array as="points">
              <mxPoint x="-380" y="280" />
              <mxPoint x="-446" y="280" />
            </Array>
          </mxGeometry>
        </mxCell>
        <mxCell id="Dc8rIp4SgCtgs9jUnkT4-8" value="constraints" style="rounded=0;whiteSpace=wrap;html=1;" vertex="1" parent="1">
          <mxGeometry x="-420" y="220" width="80" height="40" as="geometry" />
        </mxCell>
        <mxCell id="Dc8rIp4SgCtgs9jUnkT4-22" style="edgeStyle=orthogonalEdgeStyle;rounded=0;orthogonalLoop=1;jettySize=auto;html=1;entryX=1;entryY=0.5;entryDx=0;entryDy=0;" edge="1" parent="1" source="Dc8rIp4SgCtgs9jUnkT4-9" target="Dc8rIp4SgCtgs9jUnkT4-10">
          <mxGeometry relative="1" as="geometry">
            <Array as="points">
              <mxPoint x="-250" y="340" />
            </Array>
          </mxGeometry>
        </mxCell>
        <mxCell id="Dc8rIp4SgCtgs9jUnkT4-9" value="h_values" style="rounded=0;whiteSpace=wrap;html=1;" vertex="1" parent="1">
          <mxGeometry x="-290" y="220" width="80" height="40" as="geometry" />
        </mxCell>
        <mxCell id="Dc8rIp4SgCtgs9jUnkT4-24" style="edgeStyle=orthogonalEdgeStyle;rounded=0;orthogonalLoop=1;jettySize=auto;html=1;exitX=0.5;exitY=1;exitDx=0;exitDy=0;entryX=0.5;entryY=0;entryDx=0;entryDy=0;" edge="1" parent="1" source="Dc8rIp4SgCtgs9jUnkT4-10" target="Dc8rIp4SgCtgs9jUnkT4-23">
          <mxGeometry relative="1" as="geometry" />
        </mxCell>
        <mxCell id="Dc8rIp4SgCtgs9jUnkT4-10" value="find_path函数" style="rounded=1;whiteSpace=wrap;html=1;" vertex="1" parent="1">
          <mxGeometry x="-506" y="310" width="120" height="60" as="geometry" />
        </mxCell>
        <mxCell id="Dc8rIp4SgCtgs9jUnkT4-26" value="" style="edgeStyle=orthogonalEdgeStyle;rounded=0;orthogonalLoop=1;jettySize=auto;html=1;" edge="1" parent="1" source="Dc8rIp4SgCtgs9jUnkT4-23" target="Dc8rIp4SgCtgs9jUnkT4-25">
          <mxGeometry relative="1" as="geometry" />
        </mxCell>
        <mxCell id="Dc8rIp4SgCtgs9jUnkT4-23" value="&lt;font style=&quot;font-size: 12px&quot;&gt;make_constraints(constraints)&lt;/font&gt;" style="rounded=1;whiteSpace=wrap;html=1;" vertex="1" parent="1">
          <mxGeometry x="-665" y="450" width="170" height="60" as="geometry" />
        </mxCell>
        <mxCell id="Dc8rIp4SgCtgs9jUnkT4-31" value="" style="edgeStyle=orthogonalEdgeStyle;rounded=0;orthogonalLoop=1;jettySize=auto;html=1;" edge="1" parent="1" source="Dc8rIp4SgCtgs9jUnkT4-25">
          <mxGeometry relative="1" as="geometry">
            <mxPoint x="-456" y="620" as="targetPoint" />
          </mxGeometry>
        </mxCell>
        <mxCell id="Dc8rIp4SgCtgs9jUnkT4-47" value="" style="edgeStyle=orthogonalEdgeStyle;rounded=0;orthogonalLoop=1;jettySize=auto;html=1;" edge="1" parent="1" source="Dc8rIp4SgCtgs9jUnkT4-25" target="Dc8rIp4SgCtgs9jUnkT4-35">
          <mxGeometry relative="1" as="geometry" />
        </mxCell>
        <mxCell id="Dc8rIp4SgCtgs9jUnkT4-48" style="edgeStyle=orthogonalEdgeStyle;rounded=0;orthogonalLoop=1;jettySize=auto;html=1;entryX=0.5;entryY=0;entryDx=0;entryDy=0;" edge="1" parent="1" source="Dc8rIp4SgCtgs9jUnkT4-25" target="Dc8rIp4SgCtgs9jUnkT4-34">
          <mxGeometry relative="1" as="geometry" />
        </mxCell>
        <mxCell id="Dc8rIp4SgCtgs9jUnkT4-25" value="posititve" style="rhombus;whiteSpace=wrap;html=1;rounded=1;" vertex="1" parent="1">
          <mxGeometry x="-620" y="580" width="80" height="80" as="geometry" />
        </mxCell>
        <mxCell id="Dc8rIp4SgCtgs9jUnkT4-59" value="" style="edgeStyle=orthogonalEdgeStyle;rounded=0;orthogonalLoop=1;jettySize=auto;html=1;" edge="1" parent="1" source="Dc8rIp4SgCtgs9jUnkT4-27" target="Dc8rIp4SgCtgs9jUnkT4-58">
          <mxGeometry relative="1" as="geometry" />
        </mxCell>
        <mxCell id="Dc8rIp4SgCtgs9jUnkT4-27" value="放入landmarks中" style="whiteSpace=wrap;html=1;rounded=1;" vertex="1" parent="1">
          <mxGeometry x="-456" y="595" width="120" height="60" as="geometry" />
        </mxCell>
        <mxCell id="Dc8rIp4SgCtgs9jUnkT4-29" value="YES" style="text;html=1;align=center;verticalAlign=middle;resizable=0;points=[];autosize=1;strokeColor=none;" vertex="1" parent="1">
          <mxGeometry x="-630" y="680" width="40" height="20" as="geometry" />
        </mxCell>
        <mxCell id="Dc8rIp4SgCtgs9jUnkT4-32" value="YES" style="text;html=1;align=center;verticalAlign=middle;resizable=0;points=[];autosize=1;strokeColor=none;" vertex="1" parent="1">
          <mxGeometry x="-520" y="600" width="40" height="20" as="geometry" />
        </mxCell>
        <mxCell id="Dc8rIp4SgCtgs9jUnkT4-50" value="" style="edgeStyle=orthogonalEdgeStyle;rounded=0;orthogonalLoop=1;jettySize=auto;html=1;" edge="1" parent="1" source="Dc8rIp4SgCtgs9jUnkT4-34" target="Dc8rIp4SgCtgs9jUnkT4-49">
          <mxGeometry relative="1" as="geometry" />
        </mxCell>
        <mxCell id="Dc8rIp4SgCtgs9jUnkT4-34" value="add_collision_interval" style="rounded=1;whiteSpace=wrap;html=1;" vertex="1" parent="1">
          <mxGeometry x="-750" y="770" width="146" height="60" as="geometry" />
        </mxCell>
        <mxCell id="Dc8rIp4SgCtgs9jUnkT4-54" value="" style="edgeStyle=orthogonalEdgeStyle;rounded=0;orthogonalLoop=1;jettySize=auto;html=1;" edge="1" parent="1" source="Dc8rIp4SgCtgs9jUnkT4-35" target="Dc8rIp4SgCtgs9jUnkT4-53">
          <mxGeometry relative="1" as="geometry" />
        </mxCell>
        <mxCell id="Dc8rIp4SgCtgs9jUnkT4-35" value="add_move_constraint" style="rounded=1;whiteSpace=wrap;html=1;" vertex="1" parent="1">
          <mxGeometry x="-570" y="770" width="146" height="60" as="geometry" />
        </mxCell>
        <mxCell id="Dc8rIp4SgCtgs9jUnkT4-45" value="wait" style="text;html=1;align=center;verticalAlign=middle;resizable=0;points=[];autosize=1;strokeColor=none;" vertex="1" parent="1">
          <mxGeometry x="-740" y="730" width="40" height="20" as="geometry" />
        </mxCell>
        <mxCell id="Dc8rIp4SgCtgs9jUnkT4-46" value="&lt;div&gt;move&lt;/div&gt;" style="text;html=1;align=center;verticalAlign=middle;resizable=0;points=[];autosize=1;strokeColor=none;" vertex="1" parent="1">
          <mxGeometry x="-490" y="730" width="50" height="20" as="geometry" />
        </mxCell>
        <mxCell id="Dc8rIp4SgCtgs9jUnkT4-49" value="&lt;div&gt;保存在 “collision_intervals”中&lt;/div&gt;&lt;div&gt;，并且按照时间排序，保存的是&lt;/div&gt;&lt;div&gt;不能通行的时间间隔&lt;br&gt;&lt;/div&gt;" style="whiteSpace=wrap;html=1;rounded=1;" vertex="1" parent="1">
          <mxGeometry x="-767" y="910" width="180" height="60" as="geometry" />
        </mxCell>
        <mxCell id="Dc8rIp4SgCtgs9jUnkT4-53" value="保存“constraints”容器中" style="whiteSpace=wrap;html=1;rounded=1;" vertex="1" parent="1">
          <mxGeometry x="-560.5" y="910" width="127" height="60" as="geometry" />
        </mxCell>
        <mxCell id="Dc8rIp4SgCtgs9jUnkT4-55" value="&lt;div style=&quot;color: rgb(212 , 212 , 212) ; background-color: rgb(30 , 30 , 30) ; font-family: &amp;#34;droid sans mono&amp;#34; , &amp;#34;monospace&amp;#34; , monospace , &amp;#34;droid sans fallback&amp;#34; ; font-weight: normal ; font-size: 14px ; line-height: 19px&quot;&gt;&lt;div&gt;&lt;span style=&quot;color: #4ec9b0&quot;&gt;std&lt;/span&gt;&lt;span style=&quot;color: #d4d4d4&quot;&gt;::&lt;/span&gt;&lt;span style=&quot;color: #4ec9b0&quot;&gt;map&lt;/span&gt;&lt;span style=&quot;color: #d4d4d4&quot;&gt;&amp;lt;&lt;/span&gt;&lt;span style=&quot;color: #4ec9b0&quot;&gt;std&lt;/span&gt;&lt;span style=&quot;color: #d4d4d4&quot;&gt;::&lt;/span&gt;&lt;span style=&quot;color: #4ec9b0&quot;&gt;pair&lt;/span&gt;&lt;span style=&quot;color: #d4d4d4&quot;&gt;&amp;lt;&lt;/span&gt;&lt;span style=&quot;color: #569cd6&quot;&gt;int&lt;/span&gt;&lt;span style=&quot;color: #d4d4d4&quot;&gt;, &lt;/span&gt;&lt;span style=&quot;color: #569cd6&quot;&gt;int&lt;/span&gt;&lt;span style=&quot;color: #d4d4d4&quot;&gt;&amp;gt;, &lt;/span&gt;&lt;span style=&quot;color: #4ec9b0&quot;&gt;std&lt;/span&gt;&lt;span style=&quot;color: #d4d4d4&quot;&gt;::&lt;/span&gt;&lt;span style=&quot;color: #4ec9b0&quot;&gt;vector&lt;/span&gt;&lt;span style=&quot;color: #d4d4d4&quot;&gt;&amp;lt;&lt;/span&gt;&lt;span style=&quot;color: #4ec9b0&quot;&gt;Move&lt;/span&gt;&lt;span style=&quot;color: #d4d4d4&quot;&gt;&amp;gt;&amp;gt; &lt;/span&gt;&lt;span style=&quot;color: #9cdcfe&quot;&gt;constraints&lt;/span&gt;&lt;/div&gt;&lt;/div&gt;" style="text;html=1;align=center;verticalAlign=middle;resizable=0;points=[];autosize=1;strokeColor=none;" vertex="1" parent="1">
          <mxGeometry x="-776" y="1060" width="440" height="20" as="geometry" />
        </mxCell>
        <mxCell id="Dc8rIp4SgCtgs9jUnkT4-56" value="&lt;div style=&quot;color: rgb(212 , 212 , 212) ; background-color: rgb(30 , 30 , 30) ; font-family: &amp;#34;droid sans mono&amp;#34; , &amp;#34;monospace&amp;#34; , monospace , &amp;#34;droid sans fallback&amp;#34; ; font-weight: normal ; font-size: 14px ; line-height: 19px&quot;&gt;&lt;div&gt;&lt;span style=&quot;color: #d4d4d4&quot;&gt; &lt;/span&gt;&lt;span style=&quot;color: #4ec9b0&quot;&gt;std&lt;/span&gt;&lt;span style=&quot;color: #d4d4d4&quot;&gt;::&lt;/span&gt;&lt;span style=&quot;color: #4ec9b0&quot;&gt;unordered_map&lt;/span&gt;&lt;span style=&quot;color: #d4d4d4&quot;&gt;&amp;lt;&lt;/span&gt;&lt;span style=&quot;color: #569cd6&quot;&gt;int&lt;/span&gt;&lt;span style=&quot;color: #d4d4d4&quot;&gt;, &lt;/span&gt;&lt;span style=&quot;color: #4ec9b0&quot;&gt;std&lt;/span&gt;&lt;span style=&quot;color: #d4d4d4&quot;&gt;::&lt;/span&gt;&lt;span style=&quot;color: #4ec9b0&quot;&gt;vector&lt;/span&gt;&lt;span style=&quot;color: #d4d4d4&quot;&gt;&amp;lt;&lt;/span&gt;&lt;span style=&quot;color: #4ec9b0&quot;&gt;std&lt;/span&gt;&lt;span style=&quot;color: #d4d4d4&quot;&gt;::&lt;/span&gt;&lt;span style=&quot;color: #4ec9b0&quot;&gt;pair&lt;/span&gt;&lt;span style=&quot;color: #d4d4d4&quot;&gt;&amp;lt;&lt;/span&gt;&lt;span style=&quot;color: #569cd6&quot;&gt;double&lt;/span&gt;&lt;span style=&quot;color: #d4d4d4&quot;&gt;, &lt;/span&gt;&lt;span style=&quot;color: #569cd6&quot;&gt;double&lt;/span&gt;&lt;span style=&quot;color: #d4d4d4&quot;&gt;&amp;gt;&amp;gt;&amp;gt; &lt;/span&gt;&lt;span style=&quot;color: #9cdcfe&quot;&gt;collision_intervals&lt;/span&gt;&lt;span style=&quot;color: #d4d4d4&quot;&gt;;&lt;/span&gt;&lt;/div&gt;&lt;/div&gt;" style="text;html=1;align=center;verticalAlign=middle;resizable=0;points=[];autosize=1;strokeColor=none;" vertex="1" parent="1">
          <mxGeometry x="-767" y="1000" width="600" height="20" as="geometry" />
        </mxCell>
        <mxCell id="Dc8rIp4SgCtgs9jUnkT4-57" value="&lt;div style=&quot;color: rgb(212 , 212 , 212) ; background-color: rgb(30 , 30 , 30) ; font-family: &amp;#34;droid sans mono&amp;#34; , &amp;#34;monospace&amp;#34; , monospace , &amp;#34;droid sans fallback&amp;#34; ; font-weight: normal ; font-size: 14px ; line-height: 19px&quot;&gt;&lt;div&gt;&lt;span style=&quot;color: #4ec9b0&quot;&gt;std&lt;/span&gt;&lt;span style=&quot;color: #d4d4d4&quot;&gt;::&lt;/span&gt;&lt;span style=&quot;color: #4ec9b0&quot;&gt;vector&lt;/span&gt;&lt;span style=&quot;color: #d4d4d4&quot;&gt;&amp;lt;&lt;/span&gt;&lt;span style=&quot;color: #4ec9b0&quot;&gt;Move&lt;/span&gt;&lt;span style=&quot;color: #d4d4d4&quot;&gt;&amp;gt; &lt;/span&gt;&lt;span style=&quot;color: #9cdcfe&quot;&gt;landmarks&lt;/span&gt;&lt;span style=&quot;color: #d4d4d4&quot;&gt;;&lt;/span&gt;&lt;/div&gt;&lt;/div&gt;" style="text;html=1;align=center;verticalAlign=middle;resizable=0;points=[];autosize=1;strokeColor=none;" vertex="1" parent="1">
          <mxGeometry x="-551" y="670" width="210" height="20" as="geometry" />
        </mxCell>
        <mxCell id="Dc8rIp4SgCtgs9jUnkT4-69" style="edgeStyle=orthogonalEdgeStyle;rounded=0;orthogonalLoop=1;jettySize=auto;html=1;exitX=1;exitY=0.5;exitDx=0;exitDy=0;entryX=0;entryY=0.5;entryDx=0;entryDy=0;" edge="1" parent="1" source="Dc8rIp4SgCtgs9jUnkT4-58" target="Dc8rIp4SgCtgs9jUnkT4-66">
          <mxGeometry relative="1" as="geometry" />
        </mxCell>
        <mxCell id="Dc8rIp4SgCtgs9jUnkT4-58" value="将start 到 goal的路径通过landmarks拆分成多段路径，分别进行路径查找" style="whiteSpace=wrap;html=1;rounded=1;" vertex="1" parent="1">
          <mxGeometry x="-190" y="595" width="120" height="60" as="geometry" />
        </mxCell>
        <mxCell id="Dc8rIp4SgCtgs9jUnkT4-62" value="" style="edgeStyle=orthogonalEdgeStyle;rounded=0;orthogonalLoop=1;jettySize=auto;html=1;" edge="1" parent="1" source="Dc8rIp4SgCtgs9jUnkT4-60" target="Dc8rIp4SgCtgs9jUnkT4-61">
          <mxGeometry relative="1" as="geometry" />
        </mxCell>
        <mxCell id="Dc8rIp4SgCtgs9jUnkT4-60" value="&lt;div&gt;是否存在landmarks&lt;/div&gt;&lt;div&gt;&lt;br&gt;&lt;/div&gt;" style="text;html=1;align=center;verticalAlign=middle;resizable=0;points=[];autosize=1;strokeColor=none;" vertex="1" parent="1">
          <mxGeometry x="-320" y="590" width="120" height="30" as="geometry" />
        </mxCell>
        <mxCell id="Dc8rIp4SgCtgs9jUnkT4-70" style="edgeStyle=orthogonalEdgeStyle;rounded=0;orthogonalLoop=1;jettySize=auto;html=1;exitX=1;exitY=0.5;exitDx=0;exitDy=0;" edge="1" parent="1" source="Dc8rIp4SgCtgs9jUnkT4-61">
          <mxGeometry relative="1" as="geometry">
            <mxPoint x="90" y="680" as="targetPoint" />
            <Array as="points">
              <mxPoint x="-170" y="730" />
              <mxPoint x="-170" y="680" />
            </Array>
          </mxGeometry>
        </mxCell>
        <mxCell id="Dc8rIp4SgCtgs9jUnkT4-61" value="直接进行路径查找" style="rounded=1;whiteSpace=wrap;html=1;strokeWidth=1;" vertex="1" parent="1">
          <mxGeometry x="-320" y="700" width="120" height="60" as="geometry" />
        </mxCell>
        <mxCell id="Dc8rIp4SgCtgs9jUnkT4-64" value="否" style="text;html=1;align=center;verticalAlign=middle;resizable=0;points=[];autosize=1;strokeColor=none;" vertex="1" parent="1">
          <mxGeometry x="-285" y="650" width="30" height="20" as="geometry" />
        </mxCell>
        <mxCell id="Dc8rIp4SgCtgs9jUnkT4-65" value="是" style="text;html=1;align=center;verticalAlign=middle;resizable=0;points=[];autosize=1;strokeColor=none;" vertex="1" parent="1">
          <mxGeometry x="-245" y="620" width="30" height="20" as="geometry" />
        </mxCell>
        <mxCell id="Dc8rIp4SgCtgs9jUnkT4-66" value="find_partial_path" style="rounded=1;whiteSpace=wrap;html=1;strokeWidth=1;" vertex="1" parent="1">
          <mxGeometry x="90" y="655" width="180" height="50" as="geometry" />
        </mxCell>
        <mxCell id="Dc8rIp4SgCtgs9jUnkT4-78" style="edgeStyle=orthogonalEdgeStyle;rounded=0;orthogonalLoop=1;jettySize=auto;html=1;" edge="1" parent="1" source="Dc8rIp4SgCtgs9jUnkT4-72" target="Dc8rIp4SgCtgs9jUnkT4-66">
          <mxGeometry relative="1" as="geometry">
            <Array as="points">
              <mxPoint x="75" y="630" />
              <mxPoint x="180" y="630" />
            </Array>
          </mxGeometry>
        </mxCell>
        <mxCell id="Dc8rIp4SgCtgs9jUnkT4-72" value="starts" style="rounded=1;whiteSpace=wrap;html=1;strokeWidth=1;" vertex="1" parent="1">
          <mxGeometry x="30" y="560" width="90" height="40" as="geometry" />
        </mxCell>
        <mxCell id="Dc8rIp4SgCtgs9jUnkT4-84" style="edgeStyle=orthogonalEdgeStyle;rounded=0;orthogonalLoop=1;jettySize=auto;html=1;exitX=0.5;exitY=1;exitDx=0;exitDy=0;" edge="1" parent="1" source="Dc8rIp4SgCtgs9jUnkT4-75">
          <mxGeometry relative="1" as="geometry">
            <mxPoint x="194.83333333333348" y="630" as="targetPoint" />
          </mxGeometry>
        </mxCell>
        <mxCell id="Dc8rIp4SgCtgs9jUnkT4-75" value="goals" style="rounded=1;whiteSpace=wrap;html=1;strokeWidth=1;" vertex="1" parent="1">
          <mxGeometry x="150" y="560" width="90" height="40" as="geometry" />
        </mxCell>
        <mxCell id="Dc8rIp4SgCtgs9jUnkT4-82" style="edgeStyle=orthogonalEdgeStyle;rounded=0;orthogonalLoop=1;jettySize=auto;html=1;exitX=0.5;exitY=1;exitDx=0;exitDy=0;" edge="1" parent="1" source="Dc8rIp4SgCtgs9jUnkT4-76">
          <mxGeometry relative="1" as="geometry">
            <mxPoint x="314.8333333333335" y="630" as="targetPoint" />
          </mxGeometry>
        </mxCell>
        <mxCell id="Dc8rIp4SgCtgs9jUnkT4-76" value="h_value" style="rounded=1;whiteSpace=wrap;html=1;strokeWidth=1;" vertex="1" parent="1">
          <mxGeometry x="270" y="560" width="90" height="40" as="geometry" />
        </mxCell>
        <mxCell id="Dc8rIp4SgCtgs9jUnkT4-79" style="edgeStyle=orthogonalEdgeStyle;rounded=0;orthogonalLoop=1;jettySize=auto;html=1;exitX=0.5;exitY=1;exitDx=0;exitDy=0;" edge="1" parent="1" source="Dc8rIp4SgCtgs9jUnkT4-77">
          <mxGeometry relative="1" as="geometry">
            <mxPoint x="180" y="650" as="targetPoint" />
            <Array as="points">
              <mxPoint x="425" y="630" />
              <mxPoint x="180" y="630" />
            </Array>
          </mxGeometry>
        </mxCell>
        <mxCell id="Dc8rIp4SgCtgs9jUnkT4-77" value="max_f" style="rounded=1;whiteSpace=wrap;html=1;strokeWidth=1;" vertex="1" parent="1">
          <mxGeometry x="380" y="560" width="90" height="40" as="geometry" />
        </mxCell>
        <mxCell id="Dc8rIp4SgCtgs9jUnkT4-87" value="&lt;div&gt;SIPP算法主体&lt;/div&gt;" style="rounded=1;whiteSpace=wrap;html=1;strokeWidth=1;" vertex="1" parent="1">
          <mxGeometry x="540" y="620" width="120" height="60" as="geometry" />
        </mxCell>
        <mxCell id="Dc8rIp4SgCtgs9jUnkT4-88" value="&lt;div style=&quot;font-size: 11px&quot;&gt;&lt;font style=&quot;font-size: 11px&quot;&gt;&lt;span style=&quot;color: rgb(51 , 51 , 51) ; font-family: &amp;#34;open sans&amp;#34; , &amp;#34;clear sans&amp;#34; , &amp;#34;helvetica neue&amp;#34; , &amp;#34;helvetica&amp;#34; , &amp;#34;arial&amp;#34; , sans-serif ; font-style: normal ; font-weight: 400 ; letter-spacing: normal ; text-align: left ; text-indent: 0px ; text-transform: none ; word-spacing: 0px ; background-color: rgb(255 , 255 , 255) ; display: inline ; float: none&quot;&gt;open容器：保存从初始node开始，循环保存下一步的可达的node。同时是按照f值排序的容器。按顺序访问容器中的node，&lt;/span&gt;&lt;/font&gt;&lt;/div&gt;&lt;div style=&quot;font-size: 11px&quot;&gt;&lt;font style=&quot;font-size: 11px&quot;&gt;&lt;span style=&quot;color: rgb(51 , 51 , 51) ; font-family: &amp;#34;open sans&amp;#34; , &amp;#34;clear sans&amp;#34; , &amp;#34;helvetica neue&amp;#34; , &amp;#34;helvetica&amp;#34; , &amp;#34;arial&amp;#34; , sans-serif ; font-style: normal ; font-weight: 400 ; letter-spacing: normal ; text-align: left ; text-indent: 0px ; text-transform: none ; word-spacing: 0px ; background-color: rgb(255 , 255 , 255) ; display: inline ; float: none&quot;&gt;通过visited判断之前是否已经访问过，访问过说明之前有一个更小的f值，可以直接跳过。&lt;/span&gt;&lt;/font&gt;&lt;/div&gt;" style="text;html=1;align=center;verticalAlign=middle;resizable=0;points=[];autosize=1;strokeColor=none;" vertex="1" parent="1">
          <mxGeometry y="340" width="620" height="30" as="geometry" />
        </mxCell>
        <mxCell id="Dc8rIp4SgCtgs9jUnkT4-89" value="&lt;p class=&quot;md-end-block md-p md-focus&quot; style=&quot;box-sizing: border-box ; line-height: inherit ; margin: 0px 0px 0.5rem ; position: relative ; color: rgb(51 , 51 , 51) ; font-family: &amp;#34;open sans&amp;#34; , &amp;#34;clear sans&amp;#34; , &amp;#34;helvetica neue&amp;#34; , &amp;#34;helvetica&amp;#34; , &amp;#34;arial&amp;#34; , sans-serif ; font-style: normal ; font-weight: 400 ; letter-spacing: normal ; text-align: left ; text-indent: 0px ; text-transform: none ; word-spacing: 0px ; background-color: rgb(255 , 255 , 255)&quot;&gt;&lt;font style=&quot;font-size: 12px&quot;&gt;&lt;span class=&quot;md-plain md-expand&quot; style=&quot;box-sizing: border-box&quot;&gt;visited 容器：在find_successors函数中向容器中插入元素。&lt;/span&gt;&lt;/font&gt;&lt;/p&gt;&lt;ul class=&quot;ul-list&quot; style=&quot;box-sizing: border-box ; margin: 0px ; padding-left: 30px ; position: relative ; color: rgb(51 , 51 , 51) ; font-family: &amp;#34;open sans&amp;#34; , &amp;#34;clear sans&amp;#34; , &amp;#34;helvetica neue&amp;#34; , &amp;#34;helvetica&amp;#34; , &amp;#34;arial&amp;#34; , sans-serif ; font-style: normal ; font-weight: 400 ; letter-spacing: normal ; text-align: left ; text-indent: 0px ; text-transform: none ; word-spacing: 0px ; background-color: rgb(255 , 255 , 255)&quot;&gt;&lt;li class=&quot;md-list-item&quot; style=&quot;box-sizing: border-box ; margin: 0px ; position: relative ; display: list-item&quot;&gt;&lt;p class=&quot;md-end-block md-p&quot; style=&quot;box-sizing: border-box ; line-height: inherit ; margin: 0px 0px 0.5rem ; position: relative&quot;&gt;&lt;font style=&quot;font-size: 12px&quot;&gt;&lt;span class=&quot;md-plain&quot; style=&quot;box-sizing: border-box&quot;&gt;if(it-&amp;gt;second.second) 表示的含义：当前的这个node已经作为初始node遍历下一步了，这表明现在没有必要在进行一次了，&lt;/span&gt;&lt;/font&gt;&lt;/p&gt;&lt;/li&gt;&lt;li class=&quot;md-list-item&quot; style=&quot;box-sizing: border-box ; margin: 0px ; position: relative ; display: list-item&quot;&gt;&lt;p class=&quot;md-end-block md-p&quot; style=&quot;box-sizing: border-box ; line-height: inherit ; margin: 0px 0px 0.5rem ; position: relative&quot;&gt;&lt;font style=&quot;font-size: 12px&quot;&gt;&lt;span class=&quot;md-plain&quot; style=&quot;box-sizing: border-box&quot;&gt;同时之前的也是f值更小的node&lt;/span&gt;&lt;/font&gt;&lt;/p&gt;&lt;/li&gt;&lt;li class=&quot;md-list-item md-focus-container&quot; style=&quot;box-sizing: border-box ; margin: 0px ; position: relative ; display: list-item&quot;&gt;&lt;p class=&quot;md-end-block md-p md-focus&quot; style=&quot;box-sizing: border-box ; line-height: inherit ; margin: 0px 0px 0.5rem ; position: relative&quot;&gt;&lt;font style=&quot;font-size: 12px&quot;&gt;&lt;span class=&quot;md-plain md-expand&quot; style=&quot;box-sizing: border-box&quot;&gt;主要的功能：计算从start开始到某个节点时最小的g。同时会计算h，更新f的值&lt;/span&gt;&lt;/font&gt;&lt;/p&gt;&lt;/li&gt;&lt;/ul&gt;" style="text;html=1;align=center;verticalAlign=middle;resizable=0;points=[];autosize=1;strokeColor=none;" vertex="1" parent="1">
          <mxGeometry y="390" width="700" height="90" as="geometry" />
        </mxCell>
      </root>
    </mxGraphModel>
  </diagram>
</mxfile>
